<svg width="64" height="64" viewBox="0 0 64 64" fill="none" xmlns="http://www.w3.org/2000/svg">
<rect width="64" height="64" fill="white"/>
<path d="M12.3446 33.36H21.3046L21.5286 34.16H11.9286L12.3446 33.36ZM28.9526 41.616C29.038 41.616 29.0806 41.68 29.0806 41.808C29.0806 41.936 29.038 42 28.9526 42C28.5473 42 27.8966 41.9787 27.0006 41.936C26.1046 41.8933 25.454 41.872 25.0486 41.872C24.5153 41.872 23.886 41.8933 23.1606 41.936C22.4353 41.9787 21.87 42 21.4646 42C21.3793 42 21.3366 41.936 21.3366 41.808C21.3366 41.68 21.3793 41.616 21.4646 41.616C22.1046 41.616 22.5633 41.552 22.8406 41.424C23.118 41.2747 23.2566 41.04 23.2566 40.72C23.2566 40.4 23.0753 39.856 22.7126 39.088L16.0246 25.488L17.3366 23.344L11.0006 37.616C10.7233 38.256 10.5846 38.832 10.5846 39.344C10.5846 40.0907 10.8513 40.656 11.3846 41.04C11.918 41.424 12.6646 41.616 13.6246 41.616C13.7313 41.616 13.7846 41.68 13.7846 41.808C13.7846 41.936 13.7313 42 13.6246 42C13.2406 42 12.686 41.9787 11.9606 41.936C11.15 41.8933 10.446 41.872 9.84862 41.872C9.27262 41.872 8.60062 41.8933 7.83262 41.936C7.14996 41.9787 6.58462 42 6.13662 42C6.02996 42 5.97662 41.936 5.97662 41.808C5.97662 41.68 6.02996 41.616 6.13662 41.616C6.73396 41.616 7.23529 41.4987 7.64062 41.264C8.04596 41.0293 8.44062 40.6133 8.82462 40.016C9.20862 39.3973 9.66729 38.4907 10.2006 37.296L17.0806 21.808C17.1233 21.744 17.2193 21.712 17.3686 21.712C17.518 21.712 17.6033 21.744 17.6246 21.808L25.4646 37.616C26.19 39.152 26.798 40.208 27.2886 40.784C27.8006 41.3387 28.3553 41.616 28.9526 41.616ZM39.7986 42C39.7346 42 39.7026 41.936 39.7026 41.808C39.7026 41.68 39.7346 41.616 39.7986 41.616C40.5026 41.616 40.9826 41.4667 41.2386 41.168C41.4946 40.848 41.6226 40.2613 41.6226 39.408V34.64C41.6226 33.4453 41.4093 32.56 40.9826 31.984C40.5773 31.408 39.948 31.12 39.0946 31.12C38.412 31.12 37.7293 31.312 37.0466 31.696C36.3853 32.08 35.8306 32.6027 35.3826 33.264L35.2226 32.88C36.8653 30.4907 38.6786 29.296 40.6626 29.296C41.7933 29.296 42.6573 29.6267 43.2546 30.288C43.8733 30.928 44.1826 31.9093 44.1826 33.232V39.408C44.1826 40.2827 44.3 40.8693 44.5346 41.168C44.7906 41.4667 45.2813 41.616 46.0066 41.616C46.092 41.616 46.1346 41.68 46.1346 41.808C46.1346 41.936 46.092 42 46.0066 42C45.4733 42 45.0466 41.9893 44.7266 41.968L42.9026 41.936L41.0786 41.968C40.7586 41.9893 40.332 42 39.7986 42ZM31.4466 42C31.3826 42 31.3506 41.936 31.3506 41.808C31.3506 41.68 31.3826 41.616 31.4466 41.616C32.172 41.616 32.652 41.4667 32.8866 41.168C33.1426 40.8693 33.2706 40.2827 33.2706 39.408V34.64C33.2706 33.4453 33.0573 32.56 32.6306 31.984C32.2253 31.408 31.596 31.12 30.7426 31.12C30.06 31.12 29.3773 31.312 28.6946 31.696C28.0333 32.08 27.4786 32.6027 27.0306 33.264L26.8706 32.88C28.5133 30.4907 30.3266 29.296 32.3106 29.296C33.4413 29.296 34.3053 29.616 34.9026 30.256C35.5213 30.8747 35.8306 31.7813 35.8306 32.976V39.408C35.8306 40.2827 35.9586 40.8693 36.2146 41.168C36.4706 41.4667 36.9613 41.616 37.6866 41.616C37.7506 41.616 37.7826 41.68 37.7826 41.808C37.7826 41.936 37.7506 42 37.6866 42C37.132 42 36.6946 41.9893 36.3746 41.968L34.5506 41.936L32.7266 41.968C32.4066 41.9893 31.98 42 31.4466 42ZM23.2226 42C23.1586 42 23.1266 41.936 23.1266 41.808C23.1266 41.68 23.1586 41.616 23.2226 41.616C23.948 41.616 24.428 41.4667 24.6626 41.168C24.8973 40.8693 25.0146 40.2827 25.0146 39.408V33.296C25.0146 32.6133 24.9293 32.112 24.7586 31.792C24.6093 31.472 24.3533 31.312 23.9906 31.312C23.6706 31.312 23.1373 31.472 22.3906 31.792H22.3586C22.2733 31.792 22.2093 31.7387 22.1666 31.632C22.124 31.5253 22.1346 31.4613 22.1986 31.44L26.3906 29.392C26.5186 29.3493 26.5933 29.328 26.6146 29.328C26.8493 29.328 27.0733 29.5947 27.2866 30.128C27.5 30.6613 27.6066 31.3547 27.6066 32.208V39.408C27.6066 40.2827 27.724 40.8693 27.9586 41.168C28.2146 41.4667 28.7053 41.616 29.4306 41.616C29.4946 41.616 29.5266 41.68 29.5266 41.808C29.5266 41.936 29.4946 42 29.4306 42C28.8973 42 28.4706 41.9893 28.1506 41.968L26.3266 41.936L24.4706 41.968C24.172 41.9893 23.756 42 23.2226 42ZM41.6374 42C41.5734 42 41.5414 41.936 41.5414 41.808C41.5414 41.68 41.5734 41.616 41.6374 41.616C42.3627 41.616 42.8427 41.4667 43.0774 41.168C43.3334 40.8693 43.4614 40.2827 43.4614 39.408V33.584C43.4614 32.8587 43.3867 32.336 43.2374 32.016C43.088 31.6747 42.832 31.504 42.4694 31.504C42.128 31.504 41.7014 31.632 41.1894 31.888H41.1574C41.072 31.888 41.008 31.8347 40.9654 31.728C40.9227 31.6213 40.9334 31.5467 40.9974 31.504L45.6054 29.36L45.7014 29.328C45.7867 29.328 45.872 29.3813 45.9574 29.488C46.064 29.5733 46.1174 29.648 46.1174 29.712V30.384C46.0747 31.28 46.0534 32.336 46.0534 33.552V39.408C46.0534 40.2827 46.1707 40.8693 46.4054 41.168C46.6614 41.4667 47.152 41.616 47.8774 41.616C47.9414 41.616 47.9734 41.68 47.9734 41.808C47.9734 41.936 47.9414 42 47.8774 42C47.344 42 46.9174 41.9893 46.5974 41.968L44.7414 41.936L42.8854 41.968C42.5867 41.9893 42.1707 42 41.6374 42ZM44.5814 25.968C44.0267 25.968 43.5894 25.8187 43.2694 25.52C42.9707 25.2213 42.8214 24.7947 42.8214 24.24C42.8214 23.728 42.9707 23.3227 43.2694 23.024C43.5894 22.7253 44.0267 22.576 44.5814 22.576C45.1147 22.576 45.52 22.7253 45.7974 23.024C46.096 23.3227 46.2454 23.728 46.2454 24.24C46.2454 24.7947 46.096 25.2213 45.7974 25.52C45.52 25.8187 45.1147 25.968 44.5814 25.968ZM50.9694 42C50.9054 42 50.8734 41.936 50.8734 41.808C50.8734 41.68 50.9054 41.616 50.9694 41.616C51.6947 41.616 52.1747 41.4667 52.4094 41.168C52.644 40.8693 52.7614 40.2827 52.7614 39.408V34.608C52.7614 33.4133 52.5374 32.5387 52.0894 31.984C51.6627 31.408 50.98 31.12 50.0414 31.12C49.3374 31.12 48.6227 31.312 47.8974 31.696C47.1934 32.08 46.6174 32.592 46.1694 33.232L46.0094 32.848C47.716 30.4587 49.5934 29.264 51.6414 29.264C52.8147 29.264 53.7214 29.616 54.3614 30.32C55.0227 31.024 55.3534 31.9947 55.3534 33.232V39.408C55.3534 40.2827 55.4707 40.8693 55.7054 41.168C55.9614 41.4667 56.452 41.616 57.1774 41.616C57.2414 41.616 57.2734 41.68 57.2734 41.808C57.2734 41.936 57.2414 42 57.1774 42C56.644 42 56.2174 41.9893 55.8974 41.968L54.0734 41.936L52.2494 41.968C51.9294 41.9893 51.5027 42 50.9694 42ZM42.3614 42C42.2974 42 42.2654 41.936 42.2654 41.808C42.2654 41.68 42.2974 41.616 42.3614 41.616C43.0867 41.616 43.5667 41.4667 43.8014 41.168C44.036 40.8693 44.1534 40.2827 44.1534 39.408V33.296C44.1534 32.6133 44.068 32.112 43.8974 31.792C43.748 31.472 43.492 31.312 43.1294 31.312C42.8094 31.312 42.276 31.472 41.5294 31.792H41.4974C41.412 31.792 41.348 31.7387 41.3054 31.632C41.2627 31.5253 41.2734 31.4613 41.3374 31.44L45.5294 29.392C45.6574 29.3493 45.732 29.328 45.7534 29.328C45.988 29.328 46.212 29.5947 46.4254 30.128C46.6387 30.6613 46.7454 31.3547 46.7454 32.208V39.408C46.7454 40.2827 46.8627 40.8693 47.0974 41.168C47.3534 41.4667 47.844 41.616 48.5694 41.616C48.6334 41.616 48.6654 41.68 48.6654 41.808C48.6654 41.936 48.6334 42 48.5694 42C48.036 42 47.6094 41.9893 47.2894 41.968L45.4654 41.936L43.6094 41.968C43.3107 41.9893 42.8947 42 42.3614 42Z" fill="#444444"/>
</svg>
