<svg width="64" height="64" viewBox="0 0 64 64" fill="none" xmlns="http://www.w3.org/2000/svg">
<rect width="64" height="64" fill="white"/>
<path d="M9.99592 33.748H20.3639L20.6159 34.756H9.45592L9.99592 33.748ZM29.1119 42.568C29.2319 42.568 29.2919 42.64 29.2919 42.784C29.2919 42.928 29.2319 43 29.1119 43C28.6319 43 27.8879 42.976 26.8799 42.928C25.8239 42.88 25.0679 42.856 24.6119 42.856C24.0119 42.856 23.2799 42.88 22.4159 42.928C21.5999 42.976 20.9519 43 20.4719 43C20.3759 43 20.3279 42.928 20.3279 42.784C20.3279 42.64 20.3759 42.568 20.4719 42.568C21.0959 42.568 21.5399 42.508 21.8039 42.388C22.0919 42.244 22.2359 42.004 22.2359 41.668C22.2359 41.26 21.9959 40.576 21.5159 39.616L14.2079 25.18L15.9719 22.084L8.80792 37.888C8.49592 38.584 8.33992 39.232 8.33992 39.832C8.33992 40.696 8.63992 41.368 9.23992 41.848C9.86392 42.328 10.6919 42.568 11.7239 42.568C11.8439 42.568 11.9039 42.64 11.9039 42.784C11.9039 42.928 11.8439 43 11.7239 43C11.2919 43 10.6679 42.976 9.85192 42.928C8.93992 42.88 8.14792 42.856 7.47592 42.856C6.82792 42.856 6.04792 42.88 5.13592 42.928C4.31992 42.976 3.65992 43 3.15592 43C3.05992 43 3.01192 42.928 3.01192 42.784C3.01192 42.64 3.05992 42.568 3.15592 42.568C3.82792 42.568 4.39192 42.436 4.84792 42.172C5.30392 41.884 5.75992 41.392 6.21592 40.696C6.67192 39.976 7.21192 38.92 7.83592 37.528L15.6479 20.356C15.6959 20.284 15.8039 20.248 15.9719 20.248C16.1639 20.248 16.2719 20.284 16.2959 20.356L25.2959 38.068C26.1359 39.772 26.8319 40.948 27.3839 41.596C27.9359 42.244 28.5119 42.568 29.1119 42.568ZM41.2375 43C41.1655 43 41.1295 42.928 41.1295 42.784C41.1295 42.64 41.1655 42.568 41.2375 42.568C41.9815 42.568 42.4855 42.4 42.7495 42.064C43.0375 41.704 43.1815 41.044 43.1815 40.084V34.9C43.1815 33.604 42.9535 32.644 42.4975 32.02C42.0655 31.396 41.3935 31.084 40.4815 31.084C39.7375 31.084 39.0175 31.264 38.3215 31.624C37.6255 31.984 37.0615 32.476 36.6295 33.1L36.4495 32.668C38.2735 30.004 40.3015 28.672 42.5335 28.672C43.8295 28.672 44.8135 29.044 45.4855 29.788C46.1815 30.532 46.5295 31.66 46.5295 33.172V40.084C46.5295 41.044 46.6615 41.704 46.9255 42.064C47.2135 42.4 47.7295 42.568 48.4735 42.568C48.5695 42.568 48.6175 42.64 48.6175 42.784C48.6175 42.928 48.5695 43 48.4735 43C47.8495 43 47.3575 42.988 46.9975 42.964L44.8375 42.928L42.7495 42.964C42.3655 42.988 41.8615 43 41.2375 43ZM31.8055 43C31.7335 43 31.6975 42.928 31.6975 42.784C31.6975 42.64 31.7335 42.568 31.8055 42.568C32.5495 42.568 33.0535 42.4 33.3175 42.064C33.6055 41.704 33.7495 41.044 33.7495 40.084V34.9C33.7495 33.604 33.5215 32.644 33.0655 32.02C32.6335 31.396 31.9615 31.084 31.0495 31.084C30.3055 31.084 29.5855 31.264 28.8895 31.624C28.1935 31.984 27.6295 32.476 27.1975 33.1L27.0175 32.668C28.8415 30.004 30.8695 28.672 33.1015 28.672C34.3735 28.672 35.3575 29.032 36.0535 29.752C36.7495 30.448 37.0975 31.456 37.0975 32.776V40.084C37.0975 41.044 37.2295 41.704 37.4935 42.064C37.7815 42.4 38.2975 42.568 39.0415 42.568C39.1375 42.568 39.1855 42.64 39.1855 42.784C39.1855 42.928 39.1375 43 39.0415 43C38.4175 43 37.9255 42.988 37.5655 42.964L35.4055 42.928L33.3175 42.964C32.9335 42.988 32.4295 43 31.8055 43ZM22.5535 43C22.4815 43 22.4455 42.928 22.4455 42.784C22.4455 42.64 22.4815 42.568 22.5535 42.568C23.2975 42.568 23.8015 42.4 24.0655 42.064C24.3295 41.704 24.4615 41.044 24.4615 40.084V33.316C24.4615 32.572 24.3655 32.032 24.1735 31.696C24.0055 31.336 23.7295 31.156 23.3455 31.156C22.9375 31.156 22.3615 31.324 21.6175 31.66H21.5455C21.4735 31.66 21.4135 31.6 21.3655 31.48C21.3415 31.36 21.3535 31.288 21.4015 31.264L26.4055 28.816C26.5495 28.768 26.6335 28.744 26.6575 28.744C26.9455 28.744 27.2095 29.056 27.4495 29.68C27.7135 30.28 27.8455 31.084 27.8455 32.092V40.084C27.8455 41.044 27.9775 41.704 28.2415 42.064C28.5295 42.4 29.0455 42.568 29.7895 42.568C29.8615 42.568 29.8975 42.64 29.8975 42.784C29.8975 42.928 29.8615 43 29.7895 43C29.1655 43 28.6735 42.988 28.3135 42.964L26.1535 42.928L24.0295 42.964C23.6695 42.988 23.1775 43 22.5535 43ZM43.3378 43C43.2658 43 43.2298 42.928 43.2298 42.784C43.2298 42.64 43.2658 42.568 43.3378 42.568C44.0818 42.568 44.5858 42.4 44.8498 42.064C45.1138 41.704 45.2458 41.044 45.2458 40.084V33.64C45.2458 32.824 45.1618 32.236 44.9938 31.876C44.8258 31.516 44.5498 31.336 44.1658 31.336C43.8538 31.336 43.4098 31.468 42.8338 31.732H42.7978C42.7018 31.732 42.6298 31.672 42.5818 31.552C42.5338 31.408 42.5458 31.324 42.6178 31.3L48.0538 28.78L48.1618 28.744C48.2818 28.744 48.4018 28.804 48.5218 28.924C48.6418 29.044 48.7018 29.152 48.7018 29.248V30.04C48.6538 31 48.6298 32.176 48.6298 33.568V40.084C48.6298 41.044 48.7618 41.704 49.0258 42.064C49.3138 42.4 49.8298 42.568 50.5738 42.568C50.6458 42.568 50.6818 42.64 50.6818 42.784C50.6818 42.928 50.6458 43 50.5738 43C49.9498 43 49.4578 42.988 49.0978 42.964L46.9378 42.928L44.8138 42.964C44.4538 42.988 43.9618 43 43.3378 43ZM46.7938 25.18C46.0978 25.18 45.5578 24.988 45.1738 24.604C44.7898 24.22 44.5978 23.68 44.5978 22.984C44.5978 22.36 44.7898 21.868 45.1738 21.508C45.5818 21.124 46.1218 20.932 46.7938 20.932C47.4658 20.932 47.9818 21.112 48.3418 21.472C48.7018 21.832 48.8818 22.336 48.8818 22.984C48.8818 23.68 48.7018 24.22 48.3418 24.604C47.9818 24.988 47.4658 25.18 46.7938 25.18ZM53.8389 43C53.7669 43 53.7309 42.928 53.7309 42.784C53.7309 42.64 53.7669 42.568 53.8389 42.568C54.5829 42.568 55.0869 42.4 55.3509 42.064C55.6149 41.704 55.7469 41.044 55.7469 40.084V34.9C55.7469 33.604 55.5069 32.644 55.0269 32.02C54.5709 31.396 53.8389 31.084 52.8309 31.084C52.0869 31.084 51.3309 31.276 50.5629 31.66C49.8189 32.02 49.2309 32.5 48.7989 33.1L48.6189 32.668C49.4829 31.42 50.4429 30.448 51.4989 29.752C52.5789 29.032 53.7189 28.672 54.9189 28.672C56.2149 28.672 57.2349 29.092 57.9789 29.932C58.7469 30.748 59.1309 31.828 59.1309 33.172V40.084C59.1309 41.044 59.2629 41.704 59.5269 42.064C59.8149 42.4 60.3309 42.568 61.0749 42.568C61.1469 42.568 61.1829 42.64 61.1829 42.784C61.1829 42.928 61.1469 43 61.0749 43C60.4509 43 59.9589 42.988 59.5989 42.964L57.4389 42.928L55.3509 42.964C54.9669 42.988 54.4629 43 53.8389 43ZM44.1549 43C44.0829 43 44.0469 42.928 44.0469 42.784C44.0469 42.64 44.0829 42.568 44.1549 42.568C44.8989 42.568 45.4029 42.4 45.6669 42.064C45.9309 41.704 46.0629 41.044 46.0629 40.084V33.316C46.0629 32.572 45.9669 32.032 45.7749 31.696C45.6069 31.336 45.3309 31.156 44.9469 31.156C44.5389 31.156 43.9629 31.324 43.2189 31.66H43.1469C43.0749 31.66 43.0149 31.6 42.9669 31.48C42.9429 31.36 42.9549 31.288 43.0029 31.264L48.0069 28.816C48.1509 28.768 48.2349 28.744 48.2589 28.744C48.5469 28.744 48.8109 29.056 49.0509 29.68C49.3149 30.28 49.4469 31.084 49.4469 32.092V40.084C49.4469 41.044 49.5789 41.704 49.8429 42.064C50.1309 42.4 50.6469 42.568 51.3909 42.568C51.4629 42.568 51.4989 42.64 51.4989 42.784C51.4989 42.928 51.4629 43 51.3909 43C50.7669 43 50.2749 42.988 49.9149 42.964L47.7549 42.928L45.6309 42.964C45.2709 42.988 44.7789 43 44.1549 43Z" fill="#444444"/>
</svg>
